Land_normalized_precision_landing09_filtered_grf
version=1
nRows=10
nColumns=37
inDegrees=yes
endheader
time		1_ground_force_vx		1_ground_force_vy		1_ground_force_vz		1_ground_force_px		1_ground_force_py		1_ground_force_pz		1_ground_torque_x		1_ground_torque_y		1_ground_torque_z		2_ground_force_vx		2_ground_force_vy		2_ground_force_vz		2_ground_force_px		2_ground_force_py		2_ground_force_pz		2_ground_torque_x		2_ground_torque_y		2_ground_torque_z		3_ground_force_vx		3_ground_force_vy		3_ground_force_vz		3_ground_force_px		3_ground_force_py		3_ground_force_pz		3_ground_torque_x		3_ground_torque_y		3_ground_torque_z		4_ground_force_vx		4_ground_force_vy		4_ground_force_vz		4_ground_force_px		4_ground_force_py		4_ground_force_pz		4_ground_torque_x		4_ground_torque_y		4_ground_torque_z		
1.309500		7.342783		-44.927398		-27.184197		0.093106		0.000000		0.288643		0.004712		-0.028833		-0.017446		-2.508687		-19.986972		-6.085480		-0.190192		0.000000		0.315587		-0.111411		-0.887621		-0.270256		0.461662		-0.041172		-0.073348		0.381354		1.275752		1.879218		0.016830		-0.002859		0.026059		-1.880855		-0.184221		0.109453		-0.351337		1.268523		1.869606		0.012759		-0.008248		-0.014273		
1.312202		7.131504		-48.667110		-34.287212		0.094477		0.000000		0.278144		-0.030002		0.205044		0.144777		-3.481835		-35.737823		-14.918839		-0.204423		0.000000		0.309213		-0.174363		-1.789852		-0.747249		0.362393		0.069681		-0.011047		0.381311		1.275751		1.879270		0.013121		-0.001954		0.026255		-1.848281		-0.229453		0.078315		-0.351375		1.268544		1.869623		0.011626		-0.010154		-0.014155		
1.314904		3.554943		-30.893945		-30.682525		0.099713		0.000000		0.247606		-0.047222		0.411623		0.410292		-3.502049		-44.960659		-22.473626		-0.214984		0.000000		0.304609		-0.182038		-2.337148		-1.168250		0.326264		0.149201		0.025438		0.381260		1.275749		1.879330		0.009388		-0.001119		0.027726		-1.802040		-0.320435		0.077643		-0.351414		1.268564		1.869641		0.010414		-0.011922		-0.013823		
1.317606		-4.309339		17.730732		-10.673663		0.143114		0.000000		0.410948		-0.185426		0.762392		-0.460467		-1.906322		-39.034804		-24.754491		-0.231615		0.000000		0.297761		-0.098324		-2.012388		-1.275959		0.362896		0.190732		0.034069		0.381207		1.275748		1.879398		0.006129		-0.001101		0.030000		-1.738109		-0.438527		0.100543		-0.351451		1.268583		1.869661		0.009313		-0.013327		-0.013400		
1.320308		-16.521528		102.574430		28.921389		0.093372		0.000000		0.317838		-0.269997		1.674645		0.470007		1.788421		-9.426083		-17.370356		-0.289561		0.000000		0.248481		-0.018570		-0.034328		0.065010		0.466554		0.197241		0.009807		0.381155		1.275748		1.879474		0.003624		-0.002516		0.032362		-1.654750		-0.558555		0.135146		-0.351487		1.268597		1.869684		0.008458		-0.014428		-0.012968		
1.323010		-32.018153		222.621893		86.732585		0.092274		0.000000		0.306741		-0.295360		2.053579		0.800036		7.657815		49.585218		3.072093		-0.153500		0.000000		0.316817		0.156685		1.015598		0.063712		0.617979		0.177596		-0.054811		0.381108		1.275750		1.879556		0.001975		-0.005623		0.034127		-1.555032		-0.657726		0.169062		-0.351518		1.268608		1.869713		0.007837		-0.015427		-0.012587		
1.325712		-48.740823		370.525754		156.030359		0.092272		0.000000		0.302776		-0.324677		2.467752		1.039120		15.256065		139.118728		37.769015		-0.179666		0.000000		0.310555		0.652349		5.950427		1.616247		0.789827		0.141545		-0.165370		0.381067		1.275755		1.879642		0.001248		-0.010224		0.034849		-1.448895		-0.721914		0.192800		-0.351544		1.268614		1.869749		0.007273		-0.016435		-0.012341		
1.328414		-64.146459		533.233069		224.818944		0.092406		0.000000		0.301521		-0.364940		3.033538		1.278997		23.534940		252.978709		83.845746		-0.187584		0.000000		0.307452		1.099652		11.820586		3.917841		0.954303		0.097260		-0.317803		0.381034		1.275764		1.879727		0.001488		-0.015589		0.034459		-1.353257		-0.749287		0.201758		-0.351564		1.268618		1.869792		0.006539		-0.017337		-0.012325		
1.331116		-76.233158		697.125308		279.043733		0.092643		0.000000		0.302061		-0.434449		3.973080		1.590270		31.121312		379.694119		134.589541		-0.190059		0.000000		0.305477		1.488589		18.161552		6.437703		1.093695		0.049133		-0.498609		0.381007		1.275773		1.879808		0.002712		-0.020670		0.033169		-1.288839		-0.746021		0.194953		-0.351581		1.268619		1.869841		0.005544		-0.017793		-0.012635		
1.333818		-84.569975		851.452536		307.127495		0.093071		0.000000		0.304023		-0.550107		5.539194		1.997684		36.695499		505.018726		180.172063		-0.189450		0.000000		0.304161		1.747701		24.052219		8.580964		1.205245		-0.001171		-0.685889		0.380986		1.275783		1.879881		0.004780		-0.024309		0.031346		-1.275195		-0.722776		0.173461		-0.351594		1.268618		1.869893		0.004453		-0.017369		-0.013343		
